<svg xmlns="http://www.w3.org/2000/svg" viewBox="0 0 512 512"><defs><style>.cls-1{fill:#7cc245;}.cls-2{fill:#4a9c45;}.cls-3{fill:#4c9b47;}.cls-4{fill:#7bc53a;}.cls-5{fill:#447440;}.cls-6{fill:#e1b473;}.cls-7{fill:#b67e41;}.cls-8{fill:#3e2945;}.cls-9{opacity:0.21;}.cls-10{fill:#3f3f44;}.cls-11,.cls-17{fill:#f7bf9a;}.cls-12{opacity:0.63;}.cls-13{fill:#f2a88f;}.cls-14,.cls-15{fill:#fed9be;}.cls-15,.cls-17{fill-rule:evenodd;}.cls-16{fill:#f79820;}.cls-18{fill:#90278e;}.cls-19{fill:#f88f1c;}.cls-20{fill:#f9ac67;}.cls-21{fill:#f79c41;}.cls-22{fill:#8e3d7c;}.cls-23{fill:#d49f77;}.cls-24{opacity:0.35;}.cls-25{fill:#2a1d30;}.cls-26{fill:#f7931e;}.cls-27{fill:#f2f2f2;}.cls-28{fill:#543966;}.cls-29{fill:#84575d;}.cls-30{fill:#ca6867;}.cls-31{fill:#6c557b;}.cls-32{fill:#fff;}</style></defs><title>cave, man, emoticon, emoji, sticker, beach</title><g id="social_media" data-name="social media"><path class="cls-1" d="M193.94,228.86c16.94-19.48,44.27-27.34,70.07-26.51s50.69,9.21,75.13,17.52L360,227c4.21,1.43,9.1,3.63,9.78,8a6.36,6.36,0,0,1-3.87,1.47l-65.3,9.14c-3.25.46-6.72.88-9.7-.5-7.64-3.55-7.6-16.52-15.67-18.94l1.62,14.67a7.89,7.89,0,0,1-.09,3.2,6,6,0,0,1-2.28,2.88c-4.3,3.22-10.43,3.23-15.33,1s-8.71-6.31-11.69-10.78l-1.07,11.14a5.82,5.82,0,0,1-.84,3,5.7,5.7,0,0,1-2.7,1.68,140.39,140.39,0,0,1-18,5.51c-8.88,2.07-19.33,2.89-26.05-3.27-7.71-7.07-6.52-19.32-4.73-29.63"/><path class="cls-2" d="M364.66,231.82c-11.38-4.82-24.41-6.74-36.59-8.19-44.45-5.31-93.83-3.79-135.31,15.36.1,6.21,1.57,12.07,6.05,16.17,6.72,6.16,17.17,5.35,26.05,3.27a140.39,140.39,0,0,0,18-5.51,5.7,5.7,0,0,0,2.7-1.68,5.82,5.82,0,0,0,.84-3l1.07-11.14c3,4.47,6.79,8.58,11.69,10.78s11,2.19,15.33-1A6,6,0,0,0,276.8,244a7.89,7.89,0,0,0,.09-3.2l-1.62-14.67c8.06,2.43,8,15.39,15.67,18.94,3,1.38,6.44,1,9.7.5l65.3-9.14A6.36,6.36,0,0,0,369.8,235a6.44,6.44,0,0,0-.85-2.34A10,10,0,0,1,364.66,231.82Z"/><path class="cls-1" d="M232.34,177.33a343.57,343.57,0,0,0,26.26-28.91c-1.51-2.3-5-1.61-7.57-.62a324.59,324.59,0,0,0-55.4,27.72c-11.43,7.16-22.91,15.62-28.43,27.92-4.78,10.66-4.46,22.94-2.33,34.42.87,4.72,2.09,9.5,4.83,13.43s7.32,6.89,12.1,6.52c4.22-.32,7.86-3.1,10.75-6.2,14.29-15.34,15.32-38.85,26.37-56.66,5.85-9.42,14.33-17,20.34-26.29"/><path class="cls-3" d="M258.61,148.42c-.89-1.35-2.47-1.67-4.14-1.5a6.93,6.93,0,0,1-3.37,4.75c-7.93,4.87-15.93,9.62-23.79,14.59-26.27,16.63-59.91,39.84-61,74.19a7.93,7.93,0,0,1-.39,2.24,27,27,0,0,0,3.76,8.61c2.75,3.93,7.32,6.89,12.1,6.52,4.22-.32,7.86-3.1,10.75-6.2,14.29-15.34,15.32-38.85,26.37-56.66,4.48-7.22,10.5-13.33,15.77-20A343.58,343.58,0,0,0,258.61,148.42Z"/><path class="cls-4" d="M173.41,252.89c-.11-20.49-8.4-40.57-21.6-56.25s-31.08-27.08-50.36-34c-10.14-3.64-20.66-6.1-31.15-8.54l-27.23-6.34c-9-2.1-19.17-4.05-27.08.8a347.06,347.06,0,0,1,53.74,40.69c2,1.83,4.34,3.82,7,3.47A9.17,9.17,0,0,0,80.47,191L93,182.71l-7.24,14a3.67,3.67,0,0,0,1.05,5.61l24.23,21C122.93,233.61,135,244,148.91,251.24c4,2.07,8.22,3.9,12.7,4.33s9.29-.73,12.46-3.92"/><path class="cls-5" d="M150.07,251.61c7.43-2.56,11.15-12.54,7.2-19.33-3.22-5.54-9.88-8-16.16-9.25-28.67-5.61-57.73,6.32-83.53,20q-20.22,10.75-39.5,23.16c17.73,0,35.2-4,52.5-7.89,3.4-.77,6.89-1.58,9.76-3.56,5-3.43,7.56-10,13.22-12.1l-6.18,11.28a3.67,3.67,0,0,0-.65,2.22c.24,1.61,2.29,2.11,3.92,2.23,21.18,1.55,43.47,2.12,62.49-7.34"/><path class="cls-2" d="M173.4,252.26q0-3.15-.34-6.27a8.44,8.44,0,0,1-.59-.78C165,233.85,155.28,224.29,145.39,215c-17.26-16.19-34.4-32.39-53.1-46.95q-8.6-6.69-17.52-12.94l-4.47-1-27.23-6.34c-9-2.1-19.17-4.05-27.08.8a347.05,347.05,0,0,1,53.74,40.69c2,1.83,4.34,3.82,7,3.47A9.17,9.17,0,0,0,80.47,191L93,182.71l-7.24,14a3.67,3.67,0,0,0,1,5.61l24.23,21C122.93,233.61,135,244,148.91,251.24c4,2.07,8.22,3.9,12.7,4.32A15.87,15.87,0,0,0,173.4,252.26Z"/><path class="cls-5" d="M181.11,264c-4-6.75-.42-16.77,7-19.41,6-2.15,12.72.26,18.31,3.38,25.51,14.24,40,42.1,50.85,69.23q8.5,21.26,15.21,43.19c-13.53-11.47-24.32-25.76-35-39.92-2.1-2.78-4.24-5.66-5.15-9-1.57-5.82.71-12.54-2.28-17.78l-2.56,12.61a3.67,3.67,0,0,1-.93,2.11c-1.22,1.08-3.11.13-4.43-.83-17.17-12.49-34.56-26.45-43-46"/><path class="cls-6" d="M188.07,445.29c-2-4.45-4.09-8.84-5.8-13.4-3-7.93-4.63-16.28-6-24.64-7.69-46.78-6.47-94.66-1.25-141.78.53-4.8,1-10.06-1.69-14.07l-6.09,1.46-.3-.23c-7.53,10.22-11.57,22.59-14.28,35-12.82,58.62,1.65,119.87-4.73,179.54-.21,2-.4,4.11.67,5.77s3.35,2.42,5.38,2.92c14.74,3.68,31,5.73,44.6-1A210.93,210.93,0,0,0,188.07,445.29Z"/><path class="cls-7" d="M191.67,477.49a40,40,0,0,0,6.91-2.63,210.93,210.93,0,0,0-10.51-29.56c-2-4.45-4.09-8.84-5.8-13.4-3-7.93-4.63-16.28-6-24.64-7.69-46.78-6.47-94.66-1.25-141.78.14-1.25.27-2.53.35-3.81q-1.59,7.56-2.73,15.23c-2.31,15.53-9.85,55.59-10.52,71.26-.47,11.08,5.44,58.08,14,98.43C180.06,465.21,191.14,476.55,191.67,477.49Z"/><path class="cls-1" d="M217.88,308c-1.41-13.56-4.24-27.35-11.57-38.85S186.37,248.75,172.74,249h0a1.66,1.66,0,0,1,1.31,2,123.18,123.18,0,0,0,1.58,60.64c2.86,10.07,7,19.73,10.14,29.72,9.58,30.36,9.87,63,18.62,93.57a1.66,1.66,0,0,0,3.22-.08c1.07-4.88,1.84-9.83,2.6-14.76C216,382.93,221.77,345.32,217.88,308Z"/><path class="cls-2" d="M192.18,291.82c10.54,43.07,14.37,87.21,17.56,131.37q.25-1.57.49-3.14c5.76-37.11,11.54-74.73,7.65-112.08-1.41-13.56-4.24-27.35-11.57-38.85-6.16-9.66-16-17.47-27.13-19.59A370.4,370.4,0,0,1,192.18,291.82Z"/><path class="cls-4" d="M173.68,248.55c-19.5-6.31-41.16-4.72-60.18,2.9s-35.45,21-48.07,37.18c-6.63,8.49-12.26,17.71-17.86,26.91L33,339.42c-4.83,7.92-9.85,16.93-7.72,26a347.06,347.06,0,0,1,55.47-38.3c2.36-1.31,5-2.92,5.49-5.57a9.17,9.17,0,0,0-.47-4.06L81.85,303l11.07,11.27A4.9,4.9,0,0,0,95.64,316a4.89,4.89,0,0,0,2.93-1l27.5-16.44c13.49-8.07,27.12-16.24,38.37-27.23,3.22-3.14,6.28-6.58,8.08-10.7s2.22-9,.18-13.06"/><path class="cls-2" d="M173.08,248.37q-3-.94-6.06-1.64a8.44,8.44,0,0,1-.93.32c-13.14,3.58-25.24,9.78-37.14,16.27C108.17,274.64,87.41,285.84,67.73,299q-9,6.07-17.77,12.59l-2.39,3.92L33,339.42c-4.83,7.92-9.85,16.93-7.72,26a347.05,347.05,0,0,1,55.47-38.3c2.36-1.31,5-2.92,5.49-5.57a9.17,9.17,0,0,0-.47-4.06L81.85,303l11.07,11.27A4.9,4.9,0,0,0,95.64,316a4.89,4.89,0,0,0,2.93-1l27.5-16.44c13.49-8.07,27.12-16.24,38.37-27.23,3.22-3.14,6.28-6.58,8.08-10.7A15.87,15.87,0,0,0,173.08,248.37Z"/><path class="cls-8" d="M217.35,141.67c2-19.91,35.55-36.23,35.55-36.23s-20.89,12-26.08,5.07,4-18.26,33.58-28.33c0,0-15.22-8.67-12.92-18.14s47,1.75,47,1.75-18.88-19.08-8.58-20.66,32.19,9.4,32.19,9.4-17.5-8-15-16S339.2,49.87,339.2,49.87s-15.79-23.47-1.52-21.38C346.79,29.83,359.79,49,359.79,49s-13.3-32-.08-32.16S374.2,48.36,374.2,48.36s8.71-32,17-29.34-7.77,29.34-7.77,29.34,45.15-35.63,52.67-22.87-19.71,21.2-22.45,22.46,35.57-12.14,39.72-1.06-15.21,16.23-21.93,18.43c0,0,48.33-6.72,50.62,3.95S456.3,79.83,450.8,79.52c0,0,39.49,12.6,38,20.92s-10.77,4-25.82.91c0,0,25.74,10,25.33,21.55s-27.87-.69-27.87-.69,24.68,7.41,28.19,18.6S458,162.39,458,162.39H255.39S215.39,161.58,217.35,141.67Z"/><g class="cls-9"><ellipse class="cls-10" cx="354.85" cy="485.64" rx="96.06" ry="9.48"/></g><path class="cls-11" d="M390.93,447.43s-.9,34.08,9.24,35.92,33.38,6.44,37.26,0-3.4-21.09-24.91-24.82S390.93,447.43,390.93,447.43Z"/><path class="cls-11" d="M407.08,483.57c3.29.48,12-25.14,18.85-55.06H381C396.09,445.13,393.26,481.55,407.08,483.57Z"/><path class="cls-11" d="M317.75,448.24s.9,34.08-9.24,35.92-33.38,6.44-37.26,0,3.4-21.09,24.91-24.82S317.75,448.24,317.75,448.24Z"/><path class="cls-11" d="M301.81,484.38c-3.29.48-12-25.14-18.85-55.06h44.92C312.8,445.94,315.63,482.36,301.81,484.38Z"/><g class="cls-12"><polygon class="cls-13" points="392.11 452.23 411.09 441 421.11 447.83 425.47 435.95 406.19 431.36 389.11 444.6 392.11 452.23"/></g><g class="cls-12"><polygon class="cls-13" points="286.83 444.79 291.19 440.38 307.85 449.28 320.22 441.32 323.57 434.16 285.78 434.16 284.91 437.67 286.83 444.79"/></g><path class="cls-11" d="M417.29,284.72l-23.4-5-79.57,0L291,284.72c-14.29,4.22-24.57,22.75-24.57,44.26l3.9,73.25c25,29.7,141.72,28.56,164.81-4l6.69-69.2c0-21.52-10.28-40-24.56-44.27Zm0,0"/><path class="cls-14" d="M435.16,398.19l6.69-69.2c0-21.52-10.28-40-24.56-44.27h0l-23.4-5-79.57,0L291,284.72l93,23.87,51.14,89.6M417.29,283.51"/><path class="cls-15" d="M448.49,271c.54,4,2.92,16,2.92,16s39,84.37,24.14,92.56-59.19-92-56.79-93.51S448.49,271,448.49,271Z"/><ellipse class="cls-16" cx="387.72" cy="313.36" rx="7.95" ry="6.03" transform="translate(-110.7 303.42) rotate(-37.8)"/><path class="cls-17" d="M280.77,275.87c-2.39,3.31-10.19,12.9-10.19,12.9s-74.65,56.83-65.27,71,96.26-54.25,94.82-56.68S280.77,275.87,280.77,275.87Z"/><path class="cls-18" d="M345.82,418.15c-6.41-2.55-17.05-5.77-13.83-8.34,2.95-2.35,12.59-10.72,19.64-16.87,4.47-3.9,11.46-4.8,16.22-2,3.68,2.2,8.08,4.86,12.06,7.35,9.12,5.71,2.61,11.35,2.61,11.35L377.82,412l-15.6,4.77S352.46,420.79,345.82,418.15Z"/><path class="cls-19" d="M302.07,390.83c-11.41,2.41-22.33,6.59-33.7,8.56,1.13,15.28,3.39,36.82,7.77,51.64L289.08,442l20,8.94,18.4-13.05,3.9,2.88-22.82-51.2C306.38,390,304.22,390.37,302.07,390.83Z"/><path class="cls-20" d="M430.36,380.74c-.63-.48-1.24-1-1.85-1.5a2.55,2.55,0,0,1-1.08-.94c-.7-.6-1.37-1.24-2-1.87q-4.17,1.29-8.38,2.45l20.52,15.72c.2-2.14.37-4.16.51-6.09A16.18,16.18,0,0,1,430.36,380.74Z"/><path class="cls-19" d="M429.93,450l-1.39.52,1.22.55Z"/><path class="cls-21" d="M379.5,386.24c-19.32,2.24-37.55-.14-56.15-2.67a45.44,45.44,0,0,1-14.82,6l22.82,51.2,14.5,10.7,19.71-10,23.65,14.49,20.5-13.9,18.83,8.51,1.39-.52c1-5.79,5.65-34.72,7.61-55.37L417,378.87A251.31,251.31,0,0,1,379.5,386.24Z"/><path class="cls-18" d="M408,381.17c-.59.33-1.23.68-1.77,1-5.6,3.32-3.37,7.85-2.06,10.75S434.93,400,434.93,400s1-1.06,2.34-2.66c.43-4.15.75-8,.95-11.41a69.91,69.91,0,0,1-12.79-9.54Q416.81,379.09,408,381.17Z"/><path class="cls-18" d="M435.16,415l-4.15-.06-7.58,0c-7.24,0-14.31.13-18.81.13-7.76,0-10.18,6.21-10.9,10.86-.43,2.79,3.44,7.09,7.85,9.52,4.94,2.72,22.39,3.82,30,4.17C432.63,432.87,434,424,435.16,415Z"/><path class="cls-18" d="M346.3,446.36s6-.95,4.81-5.84c-.35-1.42-.56-2.85-.69-3.73-.35-2.29-1.94-3.93-5.55-5.19s-13.14-3.68-13.14-3.68-9.66-3.23-14.39-.54c-1.09.62-2.9,1.75-3.78,2.39-5.94,4.3,1,11.48,1,11.48l6.57,1.31,6.31-4.7,13.93,10Z"/><path class="cls-18" d="M293.81,424.73c3.68-.14,9.22-2.66,9.83-10.22s-9.84-9.64-9.84-9.64l-25.21-2.48c.54,6.81,1.31,14.59,2.36,22.36C277.49,424.78,291,424.84,293.81,424.73Z"/><ellipse class="cls-22" cx="357.76" cy="245.04" rx="66.78" ry="35.58"/><ellipse class="cls-23" cx="357.76" cy="237.32" rx="66.78" ry="35.58"/><path class="cls-11" d="M457.71,195.51C451.29,164,447.48,127,424.77,100.08c-48.26-57.28-138-28.36-161.8,28.37-13.39,32.88-35.72,99.46,13.55,115.3C336.77,263,472.32,267.31,457.71,195.51Z"/><path class="cls-14" d="M311.44,128.44c11.63-27.75,39-48.83,69.67-56.44C334.69,59.52,280.63,86.3,263,128.44c-13.39,32.88-35.72,99.46,13.55,115.29,27.77,8.85,71.53,14.55,109.21,11.1C363,253,341.24,248.91,325,243.73,275.73,227.9,298.06,161.32,311.44,128.44Z"/><path class="cls-23" d="M249.9,136.79l.42.93a3.12,3.12,0,0,1-.17-.43C250.07,137.14,250,137,249.9,136.79Z"/><path class="cls-23" d="M250.35,137.77l0,.05-.07-.11A.14.14,0,0,1,250.35,137.77Z"/><path class="cls-23" d="M250.14,137.29a3.12,3.12,0,0,0,.17.43l.07.11C250.49,138,250.39,137.8,250.14,137.29Z"/><path class="cls-23" d="M455.58,136.79l-.42.93a3.6,3.6,0,0,0,.17-.43C455.41,137.14,455.48,137,455.58,136.79Z"/><path class="cls-23" d="M455.13,137.77l0,.05.07-.11S455.14,137.76,455.13,137.77Z"/><path class="cls-23" d="M455.33,137.29a3.6,3.6,0,0,1-.17.43l-.07.11C455,138,455.08,137.8,455.33,137.29Z"/><path class="cls-8" d="M495.66,239.11c-2.77-10.29-24.92-25.91-24.92-25.91,30.85,8,19.78-9.9,19.78-9.9-5.54-11-31.25-19.43-31.25-19.43,34-3.81,13.45-17.15,13.45-17.15C452.95,156,424.47,158,424.47,158c16.22-6.48,17.8-17.15,17.8-17.15-1.58-6.86-14.63-7.62-14.63-7.62-1.85.09-3.59.27-5.26.51-.56.08-1.05.2-1.59.3-1.07.19-2.14.37-3.12.61-.6.15-1.15.33-1.73.5-.84.24-1.69.48-2.48.76-.57.2-1.1.43-1.65.65-.71.29-1.42.57-2.08.88s-1,.52-1.51.78-1.2.64-1.76,1-.92.59-1.36.89-1,.69-1.47,1-.82.64-1.21,1-.83.71-1.22,1.07-.73.69-1.07,1c-.16.16-.34.32-.49.48l0,0a29.45,29.45,0,0,0-7.23,12.54c10.51,11.09-1,18-4,19.23s-14.59,15.16-37.71,15.16-34.78-14-37.71-15.16-14.51-8.14-4-19.23a29.45,29.45,0,0,0-7.23-12.54l0,0c-.15-.16-.34-.32-.49-.48q-.51-.52-1.07-1c-.39-.36-.8-.71-1.22-1.07s-.79-.65-1.21-1-1-.7-1.47-1-.89-.6-1.36-.89-1.16-.66-1.76-1-1-.53-1.51-.78-1.37-.6-2.08-.88c-.54-.22-1.07-.45-1.65-.65-.78-.28-1.63-.51-2.48-.76-.58-.17-1.12-.35-1.73-.5-1-.24-2.06-.42-3.12-.61-.54-.09-1-.22-1.59-.3-1.66-.24-3.41-.41-5.26-.51,0,0-13.05.76-14.63,7.62,0,0,1.58,10.67,17.8,17.15,0,0-28.48-1.91-48.26,8.76,0,0-20.57,13.34,13.45,17.15,0,0-25.71,8.38-31.25,19.43,0,0-11.08,17.91,19.78,9.9,0,0-22.15,15.62-24.92,25.91,0,0-4.75,12.95,21.36-1.53,0,0-9.89,12.19-13.45,23.62s3.34,12.72,15.12,6c0,0-10,12.69-10.77,21.83s1.67,28,23.78-3.12c0,0-6,24.46-1.23,34.36,0,0,6.33,5.33,10.29,1.53S258,309.59,257.59,305c0,0,4.75,22.86,19.77,29,0,0,11.07,3.05,13.05-17.14,0,0,6.33,14.09,17.8,18.29s17.4-2.29,17-17.15c0,0,5.18,22.62,24.47,22.62S376.21,318,376.21,318c-.39,14.86,5.54,21.33,17,17.15S411,316.83,411,316.83C413,337,424.07,334,424.07,334c15-6.1,19.77-29,19.77-29-.39,4.57,2.77,13,6.72,16.76s10.29-1.53,10.29-1.53c4.75-9.9-1.23-34.36-1.23-34.36,22.11,31.17,24.57,12.26,23.78,3.12s-10.77-21.83-10.77-21.83c11.78,6.74,18.68,5.45,15.12-6s-13.45-23.62-13.45-23.62C500.41,252.06,495.66,239.11,495.66,239.11Z"/><path class="cls-8" d="M326.84,368.51a1,1,0,0,1-.51-1.11q-.07-.74.77,0c.3.39-.07,1.55-.23,1.91a3.26,3.26,0,0,1-2.53,1.87c-1,.18-.6,1.77.44,1.59a4.93,4.93,0,0,0,4-4.18c.2-1.55-.84-4.36-2.91-3.37-1.62.78-1.53,3.54-.3,4.62s3.55-.08,2.86-1.78c-.39-1-2-.55-1.59.44Z"/><path class="cls-8" d="M315.36,361.52A5.23,5.23,0,0,0,317,357c-.16-1.19-1-3.27-2.51-2.92s-1.23,2.17-.66,3.14a5.66,5.66,0,0,0,4.39,2.68c1.05.12,1-1.53,0-1.65a4,4,0,0,1-2.25-1,3.44,3.44,0,0,1-.72-.88c-.3-.57-.35-.84-.13,0a3.69,3.69,0,0,1-.9,4c-.77.73.39,1.89,1.16,1.16Z"/><path class="cls-8" d="M316.63,338.27c-.24,1.52-.43,3.24.81,4.39a2.29,2.29,0,0,0,3,.26,2.11,2.11,0,0,0,.33-2.63c-.84-1.22-2.25-.53-3.14.2s.35,1.83,1.16,1.16c-.71.58-.65-2.76-.62-3,.16-1-1.42-1.48-1.59-.44Z"/><path class="cls-8" d="M353.22,343.85c-.15,1.38-.35,3.28.83,4.32a1.42,1.42,0,0,0,2.11-.08c1.33-1.64-.5-4.12-2.17-2.14-.56.67.4,1.64,1,1q.39-.62.24-.17-.78-.08-.68-.77a5.39,5.39,0,0,1,.06-2.13c.09-.87-1.27-.87-1.37,0Z"/><path class="cls-8" d="M425.52,342.76c-.24,1.52-.43,3.24.81,4.39a2.29,2.29,0,0,0,3,.26,2.11,2.11,0,0,0,.33-2.63c-.84-1.22-2.25-.53-3.14.2s.35,1.83,1.16,1.16c-.71.58-.65-2.76-.62-3,.16-1-1.42-1.48-1.59-.44Z"/><path class="cls-8" d="M313.71,365.06c0,1.61.27,3.3,1.94,4a2.42,2.42,0,0,0,3.18-1.26c1.17-2.72-3-4.13-3.78-1.41a.82.82,0,0,0,1.59.44v.8a1.07,1.07,0,0,1-1.05-.81,3.34,3.34,0,0,1-.24-1.72.82.82,0,0,0-1.65,0Z"/><path class="cls-8" d="M328.74,344.22c0,1.61.27,3.3,1.94,4a2.42,2.42,0,0,0,3.18-1.26c1.17-2.72-3-4.13-3.78-1.41a.82.82,0,0,0,1.59.44v.8a1.07,1.07,0,0,1-1.05-.81,3.34,3.34,0,0,1-.24-1.72.82.82,0,0,0-1.65,0Z"/><path class="cls-8" d="M326.48,335.9c0,1.61.27,3.3,1.94,4a2.42,2.42,0,0,0,3.18-1.26c1.17-2.72-3-4.13-3.78-1.41a.82.82,0,0,0,1.59.44v.8a1.07,1.07,0,0,1-1.05-.81,3.34,3.34,0,0,1-.24-1.72.82.82,0,0,0-1.65,0Z"/><path class="cls-8" d="M319.9,351.94c.68-1.43,1.15-3,0-4.36a2.43,2.43,0,0,0-3.41-.4c-2.41,1.91.86,5.2,2.69,3,.67-.81-.49-2-1.16-1.16q1-.68,1,.57a4.17,4.17,0,0,1-.51,1.52c-.45,1,1,1.79,1.42.83Z"/><path class="cls-8" d="M341.47,360.82c.68-1.43,1.15-3,0-4.36a2.43,2.43,0,0,0-3.41-.4c-2.41,1.91.86,5.2,2.69,3,.67-.81-.49-2-1.16-1.16q1-.68,1,.57A4.17,4.17,0,0,1,340,360c-.45,1,1,1.79,1.42.83Z"/><path class="cls-8" d="M309.52,357.88c.68-1.43,1.15-3,0-4.36a2.43,2.43,0,0,0-3.41-.4c-2.41,1.91.86,5.2,2.69,3,.67-.81-.49-2-1.16-1.16q1-.68,1,.57a4.17,4.17,0,0,1-.51,1.52c-.45,1,1,1.79,1.42.83Z"/><path class="cls-8" d="M338.88,345.9c0,1.61.27,3.3,1.94,4A2.42,2.42,0,0,0,344,348.6c1.17-2.72-3-4.13-3.78-1.41a.82.82,0,0,0,1.59.44v.8a1.07,1.07,0,0,1-1.05-.81,3.34,3.34,0,0,1-.24-1.72.82.82,0,0,0-1.65,0Z"/><path class="cls-8" d="M414.63,347.82c0,1.61.27,3.3,1.94,4a2.42,2.42,0,0,0,3.18-1.26c1.17-2.72-3-4.13-3.78-1.41a.82.82,0,0,0,1.59.44v.8a1.07,1.07,0,0,1-1.05-.81,3.34,3.34,0,0,1-.24-1.72.82.82,0,0,0-1.65,0Z"/><path class="cls-8" d="M307.57,375.12c.25,1.65.7,3.46,2.36,4.22a2.41,2.41,0,0,0,3.27-1.06,2,2,0,0,0-.93-2.72c-1.53-.68-2.86.47-3.76,1.59-.66.82.5,2,1.16,1.16a6.22,6.22,0,0,1,.65-.76l.79-.52q-.06,1.47-.8.51c-.92-.55-1-1.89-1.16-2.86s-1.74-.6-1.59.44Z"/><path class="cls-8" d="M304.74,348.36c.87-1.63,1.46-3.59.51-5.33-.55-1-2.13-2.37-3.27-1.4s-.39,2.59.3,3.46c1.33,1.68,3.45,2.05,5.47,1.92,1.05-.07,1.06-1.71,0-1.65s-4.08,0-4.44-1.68c-.22-1,.77,1,.78,1.13a4.89,4.89,0,0,1-.78,2.72c-.5.93.92,1.77,1.42.83Z"/><path class="cls-8" d="M294,353.54a2.86,2.86,0,0,1-1.14,1.2q.19-1.31.57-.16c.65.94,0,1.85-.68,2.59s.45,2,1.16,1.16c1.17-1.31,2.07-3.2.95-4.84a2.34,2.34,0,0,0-3.52-.61,2,2,0,0,0,.19,3.28c1.62.91,3.1-.5,3.89-1.79.56-.91-.87-1.73-1.42-.83Z"/><path class="cls-8" d="M327.23,354.16a2.86,2.86,0,0,1-1.14,1.2q.19-1.31.57-.16c.65.94,0,1.85-.68,2.59s.45,2,1.16,1.16c1.17-1.31,2.07-3.2.95-4.84a2.34,2.34,0,0,0-3.52-.61,2,2,0,0,0,.19,3.28c1.62.91,3.1-.5,3.89-1.79.56-.91-.87-1.73-1.42-.83Z"/><path class="cls-8" d="M301.92,368.55c1.58-1.18,3-2.92,2.45-5-.33-1.37-2-3-3.19-1.45-2.46,3.11,2.25,7.83,5.25,4.89.76-.74-.41-1.91-1.16-1.16-1.41,1.38-3.25-.46-3-2.05s.53.89.49,1.1a3.9,3.9,0,0,1-1.7,2.27c-.84.63,0,2.06.83,1.42Z"/><path class="cls-8" d="M422.37,339l-.06-.1-.13,1,.12-.13-.8.21.16,0-.6-.79c0,.41-1.39,1.05-1.6,1.1a1,1,0,0,1-1.27-.24.93.93,0,0,1-.49-.83l.65.2a3.34,3.34,0,0,1,.07,1.48,3.56,3.56,0,0,1-.9,1.75c-.7.79.46,2,1.16,1.16,1.37-1.54,2.06-4.08.77-5.91a1.83,1.83,0,0,0-3.31.6,2.83,2.83,0,0,0,2.37,3.46c1.47.2,4.33-1,4.19-2.79a.84.84,0,0,0-.6-.79,1,1,0,0,0-1.08.31.84.84,0,0,0-.13,1l.06.1c.56.9,2,.07,1.42-.83Z"/><path class="cls-8" d="M424.27,357.81q-.69,1.1-1.44-.12a2.27,2.27,0,0,1,.2-1.49c.69-1.17,1.46-.27,1.64.69.34,1.85-1.09,3.69-3,3-1-.37-1.42,1.22-.44,1.59a3.88,3.88,0,0,0,5.11-3.17c.32-1.78-.75-5.21-3.21-4.38-1.87.64-2.53,3.7-1.37,5.17s3.76,1.09,4.15-.82c.21-1-1.38-1.48-1.59-.44Z"/><path class="cls-8" d="M352.62,360.38l-.82-1.09a1.5,1.5,0,0,0,.28-.28,4.46,4.46,0,0,1-2-2,1.79,1.79,0,0,1-.26-1.13,1.29,1.29,0,0,1,.8-1,2.12,2.12,0,0,1,1.95.27,3.2,3.2,0,0,1,1.25,2.59v.08a1.46,1.46,0,0,0,.42-.22,1,1,0,0,0,.4-.65l1.36.15a2.31,2.31,0,0,1-.93,1.59,2.92,2.92,0,0,1-1.59.59A3,3,0,0,1,352.62,360.38Zm-1.44-4.21a1.5,1.5,0,0,1,.12.22,3.3,3.3,0,0,0,1.17,1.27,1.81,1.81,0,0,0-.68-1.38A.79.79,0,0,0,351.18,356.17Z"/><path class="cls-8" d="M364.8,349.46l0-1.36a1.58,1.58,0,0,0,1.23-.83,2.56,2.56,0,0,1-.5-.06,1.9,1.9,0,0,1-1.2-.86,2.54,2.54,0,0,1-.12-2.08,2.62,2.62,0,0,1,1.3-1.62,1.44,1.44,0,0,1,1.21,0,2.08,2.08,0,0,1,1,1.73v.13l.22-.41,1.21.64a5.78,5.78,0,0,1-1.46,2,4.37,4.37,0,0,1-.2.7A3,3,0,0,1,364.8,349.46Zm1.3-5.57a1.17,1.17,0,0,0-.61.77,1.32,1.32,0,0,0,0,1,.52.52,0,0,0,.35.23,1.07,1.07,0,0,0,.55,0,7.76,7.76,0,0,0-.07-1.31C366.24,344,366.12,343.9,366.1,343.89Z"/><path class="cls-8" d="M379.41,344.15a2.77,2.77,0,0,1-.49,0l-.25-.06-.11.08-.1-.14A4.14,4.14,0,0,1,376,341.4a3,3,0,0,1,.3-2.66,1.88,1.88,0,0,1,1.4-.7,2.14,2.14,0,0,1,1.55.86,3.58,3.58,0,0,1,.73,2.76,3.82,3.82,0,0,1-.32,1.1,1.63,1.63,0,0,0,.7-.32,1.07,1.07,0,0,0,.43-.77l1.36,0a2.38,2.38,0,0,1-.94,1.78A3,3,0,0,1,379.41,344.15Zm-1.73-4.75a.27.27,0,0,0-.23.14,1.71,1.71,0,0,0-.12,1.4,3.1,3.1,0,0,0,1,1.44,2.44,2.44,0,0,0,.32-.92,2.2,2.2,0,0,0-.43-1.71.86.86,0,0,0-.54-.36Z"/><path class="cls-8" d="M390.22,351.67l-.47,0a3.51,3.51,0,0,1-2.57-1.46l1.13-.77a2.16,2.16,0,0,0,1.59.87,2.83,2.83,0,0,0,2.22-.69,3.64,3.64,0,0,0,1.06-2.29,3.14,3.14,0,0,1-.74.49,2.76,2.76,0,0,1-3.92-1.67,2.88,2.88,0,0,1,4.47-3.17,3.86,3.86,0,0,1,1.21,1.8,5.47,5.47,0,0,1-1.14,5.84A4.18,4.18,0,0,1,390.22,351.67Zm1.05-7.92a1.71,1.71,0,0,0-.33,0,1.47,1.47,0,1,0,1.74,1.86l.4.11a4.32,4.32,0,0,0-.16-.53,2.54,2.54,0,0,0-.77-1.19A1.43,1.43,0,0,0,391.27,343.75Z"/><path class="cls-8" d="M399.57,358.79a3.63,3.63,0,0,1,.34-7.23,1.91,1.91,0,0,1,1.36.41,2,2,0,0,1,.56.81,3.77,3.77,0,0,1-.32,3.69,3,3,0,0,1-1.8,1.11Zm-1.52-4.7.34.47a.82.82,0,0,0-.28.69,1.06,1.06,0,0,0,.43.86,1.51,1.51,0,0,0,1.89-.45,2.39,2.39,0,0,0,.16-2.33.82.82,0,0,0-.18-.29.56.56,0,0,0-.47-.1A2.35,2.35,0,0,0,398,354.09Z"/><path class="cls-8" d="M400.32,344a3.37,3.37,0,0,1-2.43-1.1,3.5,3.5,0,0,1-1-3,2.51,2.51,0,0,1,1.41-2,2,2,0,0,1,1.32-.08,3.78,3.78,0,0,1,.51-.09A3,3,0,0,1,403,339a3.07,3.07,0,0,1,.11,3,3.26,3.26,0,0,1-2.49,1.91Zm-2-4.18a1.7,1.7,0,0,0-.1.35,2.13,2.13,0,0,0,.62,1.79,2,2,0,0,0,1.62.67,1.89,1.89,0,0,0,1.41-1.13,1.73,1.73,0,0,0,0-1.68,1.63,1.63,0,0,0-1.52-.65l-.68.37a.53.53,0,0,0-.12-.14,1.28,1.28,0,0,0-.62.66Z"/><path class="cls-8" d="M381.61,368.09a2.76,2.76,0,0,1-.55-.06,2.24,2.24,0,0,1-1.62-1.14,1.7,1.7,0,0,1-.06-1.32,1.44,1.44,0,0,1,.77-.84l.16-.06a2.16,2.16,0,0,1,.87-.51,2,2,0,0,1,1.67,3.58A2.29,2.29,0,0,1,381.61,368.09Zm.17-1.39h0a.81.81,0,0,0,.33-.11.73.73,0,0,0,0-1.06.52.52,0,0,0-.27-.1,1.15,1.15,0,0,1,0,.87l-.82-.29a.74.74,0,0,0,.15.4.66.66,0,0,0,.49.29Z"/><path class="cls-8" d="M393.21,371.1a2.58,2.58,0,0,1-2-1,2.06,2.06,0,0,1-.47-1.65,2.67,2.67,0,0,1-.53-.76,3.08,3.08,0,0,1-.16-2.18,3,3,0,0,1,2.15-2,3.27,3.27,0,0,1,3.06.61,4.1,4.1,0,0,1,.94,4.43,3.55,3.55,0,0,1-2.82,2.49Zm-.92-1.84,0,0a1.18,1.18,0,0,0,1,.45,2.27,2.27,0,0,0,1.67-1.59,2.76,2.76,0,0,0-.56-2.95,1.91,1.91,0,0,0-1.78-.32,1.6,1.6,0,0,0-1.13,2.28,1.24,1.24,0,0,0,1.36.72.71.71,0,0,0,.39-.56.43.43,0,0,0-.11-.4l.81-1.1a1.74,1.74,0,0,1,.65,1.69,2.05,2.05,0,0,1-1.28,1.65A2.15,2.15,0,0,1,392.29,369.26Z"/><path class="cls-8" d="M405.5,366a2.64,2.64,0,0,1-1.16-.25h0a1.26,1.26,0,0,1-1-.46,1.06,1.06,0,0,1-.23-.88,3.77,3.77,0,0,1,.15-2.71,2.43,2.43,0,0,1,1.35-1.34,1.34,1.34,0,0,1,1.13.14,1.73,1.73,0,0,1,.74,1.27,4.15,4.15,0,0,1-.57,2.83,2.2,2.2,0,0,0,.83-.39,6.43,6.43,0,0,0,1.59-2.39l1.24.58a7.54,7.54,0,0,1-2,2.89A3.51,3.51,0,0,1,405.5,366Zm-.46-4.34a1.13,1.13,0,0,0-.5.58,2.17,2.17,0,0,0,0,1.95l0,0a2.76,2.76,0,0,0,.59-2.17A.64.64,0,0,0,405,361.64Z"/><path class="cls-8" d="M372.23,358.88l-1.08-.84a3.33,3.33,0,0,0,.63-1.45,2.15,2.15,0,0,1-1.29-.33,2.08,2.08,0,0,1-1-1.34,1.72,1.72,0,0,1,.91-1.93,1.53,1.53,0,0,1,1.25,0,2.48,2.48,0,0,1,1.11,1.11l.78-.25a2.09,2.09,0,0,1-.17,1.64,2.22,2.22,0,0,1-.2.31A4.78,4.78,0,0,1,372.23,358.88Zm-1.1-4.63a.31.31,0,0,0-.26.41.8.8,0,0,0,.88.56c0-.08,0-.16-.07-.24A1.28,1.28,0,0,0,371.13,354.25Z"/><path class="cls-8" d="M365.39,368a2.71,2.71,0,0,1-.56-.05,3.3,3.3,0,0,1-2.42-2.28,2.84,2.84,0,0,1,.58-2.81,2.27,2.27,0,0,1,1.6-.66h0a1.92,1.92,0,0,1,1.41.59,2.52,2.52,0,0,1,.61,1.65,4.91,4.91,0,0,1-.28,1.89,1.29,1.29,0,0,0,.34-.42,3.37,3.37,0,0,0-.13-2.28l1.31-.37a4.46,4.46,0,0,1,0,3.26A2.84,2.84,0,0,1,365.39,368Zm-.8-4.44a.88.88,0,0,0-.62.25,1.52,1.52,0,0,0-.25,1.46,2,2,0,0,0,1,1.22,3.51,3.51,0,0,0,.51-2,1.26,1.26,0,0,0-.24-.78C364.89,363.6,364.69,363.63,364.59,363.58Z"/><path class="cls-8" d="M365.89,374.75l0-1.36a6.37,6.37,0,0,0,1.21-.14l0,0a2,2,0,0,1-.74-2.65,1.89,1.89,0,0,1,2.4-.52,4,4,0,0,1,1.44,1.42,2.33,2.33,0,0,1,.23.37,1.64,1.64,0,0,0,.47-.73l1.31.4A3.27,3.27,0,0,1,370,373.6l-.42.12A7.63,7.63,0,0,1,365.89,374.75Zm1.89-3.55a.4.4,0,0,0-.32.12c-.11.17.09.58.39.8a1.8,1.8,0,0,0,1.25.29l0,0a.89.89,0,0,1-.1-.13,2.89,2.89,0,0,0-.93-1A.77.77,0,0,0,367.78,371.2Z"/><path class="cls-8" d="M356.92,372.83a1.57,1.57,0,0,1-.89-.27l.76-1.13s.11.07.28,0a1.22,1.22,0,0,0,.53-.53l-.37,0a3.35,3.35,0,0,1-3-2.39,1.61,1.61,0,0,1,0-1.09,1.53,1.53,0,0,1,1.8-.84,3.63,3.63,0,0,1,2.33,1.45l.73-.62a1.9,1.9,0,0,1,.24,2,2.49,2.49,0,0,1-.25.44,3.33,3.33,0,0,1,0,.84,2.64,2.64,0,0,1-1.46,1.93A1.73,1.73,0,0,1,356.92,372.83ZM355.54,368s0,.07,0,.14c.25.74.95,1.54,1.72,1.46a.76.76,0,0,0,.31-.09,2.44,2.44,0,0,0-.32-.59,2.25,2.25,0,0,0-1.44-.92A1,1,0,0,0,355.54,368Z"/><path class="cls-8" d="M341.77,375l-.65-1.2a2.68,2.68,0,0,0,1.2-1.41h0a2.25,2.25,0,0,1-2.19-2,1.85,1.85,0,0,1,.86-1.62,1.61,1.61,0,0,1,1.62-.14,2.11,2.11,0,0,1,.95,1.07,3.79,3.79,0,0,1,.26.77l.94.46a2.63,2.63,0,0,1-.9,1A4.16,4.16,0,0,1,341.77,375Zm.14-5.16a.41.41,0,0,0-.2.07.51.51,0,0,0-.24.4.9.9,0,0,0,.88.71h.16a2.43,2.43,0,0,0-.21-.75.85.85,0,0,0-.32-.42Z"/><path class="cls-8" d="M335.41,369.58l-.74-1.15.13-.09a2.56,2.56,0,0,1-1.87-.92,2.32,2.32,0,0,1-.51-2.24l.09-.28.27-.12a2.84,2.84,0,0,1,3.21.71,1.11,1.11,0,0,0-.08-.37l1.26-.53A2.79,2.79,0,0,1,337,367a3,3,0,0,1-.36.51A2.8,2.8,0,0,1,335.41,369.58Zm-1.72-3.66a1.13,1.13,0,0,0,.28.6,1.17,1.17,0,0,0,1,.44.93.93,0,0,0,.27-.09,1.08,1.08,0,0,0-.1-.26A1.44,1.44,0,0,0,333.68,365.92Z"/><path class="cls-8" d="M347.9,366.92l-1.3-.42a11,11,0,0,0,.34-1.2,2.12,2.12,0,0,1-1.23.37,2,2,0,0,1-2-1.29,2.11,2.11,0,0,1,.55-2.15,2.25,2.25,0,0,1,2.25-.65,2.92,2.92,0,0,1,1.86,2.57A7.06,7.06,0,0,1,347.9,366.92Zm-2-4.07a1,1,0,0,0-.69.32.78.78,0,0,0-.24.75c.16.47,1.12.57,1.3.06a.46.46,0,0,0,.39,0l-.5-1.1-.08,0Z"/><path class="cls-8" d="M384.09,356.76,383,355.9l.21-.28a4.14,4.14,0,0,1-1.5-3.81l.06-.42.41-.13a2.11,2.11,0,0,1,1.79.26,2.78,2.78,0,0,1,1.25,1.91,3.44,3.44,0,0,1-.13,1.46,2,2,0,0,0,.95-.25,1.45,1.45,0,0,0,.77-1l1.35.22a2.8,2.8,0,0,1-1.45,2,3.29,3.29,0,0,1-2.24.37C384.38,356.39,384.24,356.57,384.09,356.76Zm-1-4.18a2.78,2.78,0,0,0,.78,1.77,2,2,0,0,0,0-.73,1.39,1.39,0,0,0-.62-.94Z"/><path class="cls-8" d="M408.2,349.48a3.47,3.47,0,0,1-.48,0,3.16,3.16,0,0,1-2.28-1.41l1.15-.73a1.84,1.84,0,0,0,1.31.78,1.81,1.81,0,0,0,1.47-.4,1.66,1.66,0,0,0,.41-.62,2.37,2.37,0,0,1-2.14.08,2.16,2.16,0,0,1-1.17-1.61,1.94,1.94,0,0,1,.51-1.73,2.42,2.42,0,0,1,3.12,0,3.31,3.31,0,0,1,.18,4.89A3.09,3.09,0,0,1,408.2,349.48Zm.25-4.87a.69.69,0,0,0-.5.18.62.62,0,0,0-.13.53.83.83,0,0,0,.41.6,1.2,1.2,0,0,0,1.41-.53l.05,0a1.61,1.61,0,0,0-.43-.53A1.41,1.41,0,0,0,408.45,344.61Z"/><path class="cls-8" d="M410.87,361.49l-.52-1.26a3.64,3.64,0,0,0,1.23-.85,4.2,4.2,0,0,1-1.38-1.63,2.32,2.32,0,0,1,.23-2.61,2,2,0,0,1,1.41-.52,2.19,2.19,0,0,1,1.59.85,3.12,3.12,0,0,1,.36,2.75,4.92,4.92,0,0,1-.2.57,2.38,2.38,0,0,0,.54,0,3,3,0,0,0,2.6-1.8l1.27.51a4.36,4.36,0,0,1-3.83,2.65,5.44,5.44,0,0,1-1.32-.18A5.06,5.06,0,0,1,410.87,361.49Zm.83-5.5a.4.4,0,0,0-.29.1c-.21.22-.15.71,0,1.08a2.83,2.83,0,0,0,.89,1.07,3.4,3.4,0,0,0,.14-.4,1.82,1.82,0,0,0-.14-1.56.83.83,0,0,0-.59-.3Z"/><path class="cls-8" d="M406.91,336.21l-.78-1.12a3.83,3.83,0,0,0,1.48-2.19,2,2,0,0,1-.39-.08,2.09,2.09,0,0,1-1.41-2,1.79,1.79,0,0,1,1.07-1.82,1.44,1.44,0,0,1,.83-.08,1.53,1.53,0,0,1,1,1,4.9,4.9,0,0,1,.22.66,1.15,1.15,0,0,0,.06-.26l1.36.12a2.76,2.76,0,0,1-1.21,2l-.1.07A5.28,5.28,0,0,1,406.91,336.21Zm.44-5.94c-.17.13-.17.44-.17.53a.78.78,0,0,0,.44.71l.11,0a3.53,3.53,0,0,0-.26-1A.61.61,0,0,0,407.34,330.28Z"/><g class="cls-24"><path class="cls-25" d="M313,186.57c2.94,1.16,14.59,15.16,37.71,15.16s34.78-14,37.71-15.16,18.63-9.18,8.32-20.2c.12,1.07-.76,3.64-2.35,5.7a16.54,16.54,0,0,1-6,4.34c-2.94,1.16-14.59,15.16-37.71,15.16S316,177.58,313,176.42a18.59,18.59,0,0,1-5-3.21c-1.82-1.79-2.63-4-3.44-4.7C294.33,179.52,310.07,185.39,313,186.57Z"/></g><path class="cls-26" d="M310,142.32a9.34,9.34,0,0,1-5-17.21c24.73-15.77,57.94-18.06,84.61-5.83a9.34,9.34,0,1,1-7.79,17c-21-9.65-47.26-7.85-66.78,4.6A9.28,9.28,0,0,1,310,142.32Z"/><circle class="cls-26" cx="426.64" cy="131.62" r="43.31"/><path class="cls-27" d="M399.6,97.87a43.54,43.54,0,0,0-9.91,11.24l59.46,59.46a43.53,43.53,0,0,0,11.24-9.91Z"/><path class="cls-27" d="M463,155a43.21,43.21,0,0,0,4.22-8.31L411.54,91.05a43.21,43.21,0,0,0-8.31,4.22Z"/><circle class="cls-26" cx="277.89" cy="131.62" r="43.31"/><path class="cls-27" d="M250.85,97.87a43.54,43.54,0,0,0-9.91,11.24l59.46,59.46a43.53,43.53,0,0,0,11.24-9.91Z"/><path class="cls-27" d="M314.24,155a43.21,43.21,0,0,0,4.22-8.31L262.79,91.05a43.21,43.21,0,0,0-8.31,4.22Z"/><path class="cls-28" d="M453.48,50.9c-4.77-3.83-10.78-4.7-17.22-3.86a7.41,7.41,0,0,0-10.72-9,41.86,41.86,0,0,0-11.29,9,7.78,7.78,0,0,0-6.72-4.52c-13-1.16-22.15,17.38-24.26,27.8-.95,4.69,2.65,8.71,7.27,9.19,2.73.28,5.45-.46,8.1-1.19,16.82-4.66,38.08-7.06,53.33-15.74C455.79,60.44,457.27,53.94,453.48,50.9Z"/><path class="cls-28" d="M250.84,52.46c4.77-3.83,10.78-4.7,17.22-3.86a7.41,7.41,0,0,1,10.72-9,41.86,41.86,0,0,1,11.29,9,7.78,7.78,0,0,1,6.72-4.52c13-1.16,22.15,17.38,24.26,27.8.95,4.69-2.65,8.71-7.27,9.19-2.73.28-5.45-.46-8.1-1.19-16.82-4.66-38.08-7.06-53.33-15.74C248.53,62,247,55.51,250.84,52.46Z"/><path class="cls-29" d="M398.1,262.15c-11.71,9.1-28.34,15.95-50.17,16-30.66.1-47.57-9.39-55.51-21-11.26-16.5-4.53-37.35,6.51-41.43a39.61,39.61,0,0,1,4.56-1.4c15.3-3.66,21.47,6.17,44.44,9.66,0,0,36.33,6.2,53.56-4a33.2,33.2,0,0,1,3.44-1.78C425.94,209,424.78,241.41,398.1,262.15Z"/><path class="cls-30" d="M398.1,262.15c-11.71,9.1-28.34,15.95-50.17,16-30.66.1-47.57-9.39-55.51-21C292.42,257.13,343.05,227.33,398.1,262.15Z"/><path class="cls-27" d="M375.31,237.13c2.43.43,5.34-.34,7.8-.58s5.65.09,7.36-1.86.43-3.93,0-6.17c-.29-1.58.22-3.07.46-4.57a86.52,86.52,0,0,1-18.32,1.88l-.29,6C372.24,234.18,372.56,236.65,375.31,237.13Z"/><path class="cls-27" d="M336.3,276.42h0v-.05a25.31,25.31,0,0,0-.57-10.19,3.34,3.34,0,0,0-3.14-2.39l-8.44-.43c-2.23-.11-5.33-.83-7.52-.09-3.3,1.11-3.89,5.66-3.89,9.22a82.56,82.56,0,0,0,23.34,5.19,3.51,3.51,0,0,0,.11-.39C336.25,277,336.26,276.71,336.3,276.42Z"/><path class="cls-27" d="M322.34,233.67a57.29,57.29,0,0,1,15.42,2.78,3.28,3.28,0,0,0,4.12-3.14l-.37-10.59c-9.45-2.18-15.73-5.31-21.55-7.32l-.89,15A3.31,3.31,0,0,0,322.34,233.67Z"/><path class="cls-31" d="M355.47,433.75c-31.37,0-62.66-7-96.42-21a28.9,28.9,0,0,1,22.13-53.41c52.67,21.82,93.83,22.09,146.8,1A28.9,28.9,0,1,1,449.4,414C416.46,427.16,385.92,433.75,355.47,433.75Z"/><path class="cls-28" d="M374.08,411.58c-25.84,1.24-51.67-2.45-76.62-9-18.71-4.93-39-10.27-56-20.28A28.89,28.89,0,0,0,259,412.77c33.76,14,65,21,96.42,21,30.45,0,61-6.58,93.94-19.74a28.9,28.9,0,0,0,17.82-31.36A197.54,197.54,0,0,1,374.08,411.58Z"/><path class="cls-32" d="M324.05,377.16a82.74,82.74,0,0,1-13.68-3.5c-5.56-1.94-7.95,6.88-2.43,8.8a82.74,82.74,0,0,0,13.68,3.5c2.43.4,4.91-.64,5.61-3.19.6-2.19-.74-5.21-3.19-5.61Z"/><path class="cls-32" d="M295.1,369.87a79.9,79.9,0,0,0-28.55-7.19c-5.87-.36-5.84,8.77,0,9.13a67.44,67.44,0,0,1,23.95,5.94c5.3,2.42,9.95-5.44,4.61-7.88Z"/></g></svg>