<?xml version="1.0" ?><svg enable-background="new 0 0 64 64" version="1.1" viewBox="0 0 64 64" xml:space="preserve" xmlns="http://www.w3.org/2000/svg" xmlns:xlink="http://www.w3.org/1999/xlink"><g id="Flat_1"><g><g><circle cx="32" cy="32" fill="#E9EDF1" r="32"/></g></g><g id="Color_2_6_"><g><g><path d="M8,44.147V15.084c0-0.516,0.441-0.938,0.979-0.938h46.041c0.538,0,0.979,0.422,0.979,0.938v29.062H8z" fill="#333333"/></g></g><g><g><path d="M56,44.147v4c0,0.55-0.441,1-0.979,1H8.979c-0.538,0-0.979-0.45-0.979-1v-4L56,44.147L56,44.147z" fill="#636363"/></g></g><g><g><polygon fill="#C9C9C9" points="25,56.147 39,56.147 38,49.147 26,49.147     "/></g></g><g><g><polygon fill="#AAAAAA" points="38,49.147 26,49.147 25.377,53.51 38.233,50.778     "/></g></g><g><g><rect fill="#636363" height="1" width="21" x="21.5" y="56.147"/></g></g><g><g><polygon fill="#939393" points="26,49.147 38,49.147 38.068,49.62 25.689,51.328     "/></g></g></g><g><g><path d="M47.837,35.848H29.914c-0.682,0-1.24-0.558-1.24-1.24v-9.762c0-0.682,0.558-1.24,1.24-1.24h17.923     c0.682,0,1.24,0.558,1.24,1.24v9.762C49.078,35.289,48.52,35.848,47.837,35.848z" fill="#DB2B42"/></g><g><path d="M32.416,28.363h-1.448v-0.774h3.842v0.774h-1.464v4.309h-0.929V28.363z" fill="#FFFFFF"/></g><g><path d="M38.28,31.569c0,0.437,0.016,0.802,0.03,1.102h-0.815l-0.046-0.56h-0.014     c-0.159,0.264-0.521,0.642-1.177,0.642c-0.672,0-1.282-0.401-1.282-1.599v-2.159h0.927v1.999c0,0.61,0.198,1.007,0.688,1.007     c0.369,0,0.61-0.264,0.708-0.501c0.032-0.082,0.052-0.178,0.052-0.287v-2.218h0.929V31.569z" fill="#FFFFFF"/></g><g><path d="M39.252,32.672c0.016-0.25,0.032-0.656,0.032-1.034v-4.322h0.927v2.186h0.016     c0.225-0.351,0.626-0.588,1.175-0.588c0.9,0,1.539,0.747,1.533,1.863c0,1.321-0.838,1.977-1.667,1.977     c-0.476,0-0.897-0.182-1.161-0.633H40.09l-0.046,0.551H39.252z M40.211,31.155c0,0.077,0.007,0.15,0.023,0.219     c0.098,0.369,0.421,0.651,0.822,0.651c0.581,0,0.936-0.469,0.936-1.207c0-0.651-0.31-1.18-0.929-1.18     c-0.376,0-0.715,0.273-0.822,0.679c-0.014,0.068-0.03,0.15-0.03,0.241V31.155z" fill="#FFFFFF"/></g><g><path d="M44.353,31.096c0.023,0.665,0.542,0.952,1.132,0.952c0.43,0,0.738-0.064,1.018-0.169l0.137,0.642     c-0.319,0.128-0.756,0.228-1.284,0.228c-1.191,0-1.892-0.733-1.892-1.858c0-1.016,0.619-1.977,1.794-1.977     c1.193,0,1.585,0.984,1.585,1.79c0,0.173-0.016,0.31-0.03,0.392H44.353z M45.968,30.444c0.007-0.337-0.143-0.897-0.763-0.897     c-0.574,0-0.815,0.524-0.852,0.897H45.968z" fill="#FFFFFF"/></g><g><path d="M16.53,32.672v-2.118l-1.608-2.965h1.057l0.61,1.303c0.175,0.378,0.303,0.665,0.44,1.011h0.014     c0.13-0.323,0.271-0.642,0.446-1.011l0.61-1.303h1.048l-1.69,2.942v2.141H16.53z" fill="#FFFFFF"/></g><g><path d="M22.46,30.8c0,1.353-0.95,1.954-1.886,1.954c-1.041,0-1.84-0.715-1.84-1.89     c0-1.211,0.792-1.949,1.901-1.949C21.729,28.914,22.46,29.684,22.46,30.8z M19.693,30.841c0,0.706,0.346,1.243,0.911,1.243     c0.528,0,0.9-0.519,0.9-1.262c0-0.574-0.257-1.23-0.89-1.23C19.957,29.593,19.693,30.226,19.693,30.841z" fill="#FFFFFF"/></g><g><path d="M26.511,31.569c0,0.437,0.016,0.802,0.03,1.102h-0.815l-0.046-0.56h-0.014     c-0.159,0.264-0.521,0.642-1.177,0.642c-0.672,0-1.282-0.401-1.282-1.599v-2.159h0.927v1.999c0,0.61,0.198,1.007,0.688,1.007     c0.369,0,0.61-0.264,0.708-0.501c0.032-0.082,0.052-0.178,0.052-0.287v-2.218h0.929V31.569z" fill="#FFFFFF"/></g><g><defs><path d="M47.837,35.848H29.914c-0.682,0-1.24-0.558-1.24-1.24v-9.762c0-0.682,0.558-1.24,1.24-1.24h17.923      c0.682,0,1.24,0.558,1.24,1.24v9.762C49.078,35.289,48.52,35.848,47.837,35.848z" id="SVGID_9_"/></defs><clipPath id="SVGID_4_"><use overflow="visible" xlink:href="#SVGID_9_"/></clipPath></g></g></g></svg>