<?xml version="1.0" ?><svg style="enable-background:new 0 0 512 512;" version="1.1" viewBox="0 0 512 512" xml:space="preserve" xmlns="http://www.w3.org/2000/svg" xmlns:xlink="http://www.w3.org/1999/xlink"><style type="text/css">
	.st0{fill:#1E1E1E;}
	.st1{fill:#464646;stroke:#21759B;stroke-width:2;stroke-miterlimit:10;}
	.st2{fill:#FFFFFF;}
</style><g id="Edges"/><g id="Background_Bottom"><g><path class="st0" d="M492.3,443.1c0,34.2-27.7,61.9-61.9,61.9H80.7c-34.2,0-61.9-27.7-61.9-61.9V93.4c0-34.2,27.7-61.9,61.9-61.9    h349.7c34.2,0,61.9,27.7,61.9,61.9V443.1z"/></g></g><g id="Background"><path class="st1" d="M492.3,418.4c0,34.2-27.7,61.9-61.9,61.9H80.7c-34.2,0-61.9-27.7-61.9-61.9V68.6c0-34.2,27.7-61.9,61.9-61.9   h349.7c34.2,0,61.9,27.7,61.9,61.9V418.4z"/></g><g id="Symbol"><path class="st2" d="M392.7,192c-2.4-6.1-9.7-17.6-13.3-23c-1.2-1.8-2.6-3.6-3.9-5.3c-0.7-0.9-1.4-1.7-2-2.6   c-1.2-1.5-2.4-3-3.7-4.4c-0.1-0.2-0.3-0.3-0.4-0.5c-10.9-12.1-24.1-22.7-37.7-30.8l-11.5-6.1c-11.5-4.8-12.7-6.1-26.6-9.7   c-10.9-3-21.2-4.2-30.9-4.8l-13.3,0c-15.1,0.6-29.7,3.6-44.8,8.5c-32.7,11.5-61.8,36.9-79.3,66.6c-6.7,10.9-12.7,26-15.7,38.2   c-2.4,9.7-4.8,20.6-4.8,32.7c0,17.6,0,24.2,4.8,42.4c8.5,34.5,30.3,66.6,58.7,86c9.1,6.1,10.3,6.1,17,10.3l12.7,6.1   c17,6.7,33.9,10.9,50.9,11.5l13.3,0c15.1-0.6,29.7-3.6,44.8-8.5c32.7-11.5,61.8-36.9,79.3-66.6c12.1-19.4,20.6-47.8,20.6-70.9   C406.6,229.5,403.6,219.2,392.7,192z M155.3,347c-3.6-4.8-6.1-6.1-10.9-13.9c-13.3-19.4-24.2-45.4-24.2-71.5   c0-20.6,1.2-35.1,9.1-55.1c0.6-1.8,1.2-3.6,2.4-4.8l32.1,87.2c4.8,15.1,10.9,29.7,15.7,44.2c3,7.3,5.5,14.5,7.9,21.8l8.5,22.4   C186.8,375.5,161.9,355.5,155.3,347z M291.5,386.4c-10.3,2.4-18.8,4.8-30.3,4.8c-12.1,0-15.7,0.6-28.5-1.8l-15.1-3   c1.8-9.1,29.7-86,34.5-102.3c1.2-3,4.8-12.7,4.8-15.1h1.8c0,2.4,6.1,18.2,7.3,21.8l2.4,7.3c9.1,22.4,17.6,49.1,26,71.5   c1.8,4.8,3.6,10.3,5.5,14.5C297,384.5,295.2,385.7,291.5,386.4z M317,319.1l-36.3-108.4c-1.2-3-5.5-15.7-6.1-18.2   c3.6,0,9.7-0.6,12.7-1.2c6.1-0.6,7.3-1.2,7.3-6.7c0-2.4-1.8-4.8-4.2-4.8c-10.3,0-18.8,1.2-29.7,1.2l-14.5,0   c-11.5,0-20.6-1.2-31.5-1.2c-1.2,0-3.6,2.4-3.6,6.1c0,4.8,3,4.8,7.3,5.5c3,0,10.3,0,12.1,1.8l18.8,50.9c1.8,5.5,2.4,4.8,0.6,10.3   l-20.6,62.4c-1.2,3.6-6.7,18.8-6.7,21.2c-1.8-1.2-1.8-1.8-2.4-3.6l-4.2-13.9l-6.1-18.2l-12.7-36.3c-1.8-6.7-23-66.6-24.2-73.3   c3,0,15.7-0.6,18.2-2.4c3-3,3-7.3,0-9.1c-2.4-2.4-9.7-1.2-12.7-0.6l-35.7,0.6c6.1-9.1,11.5-15.7,18.8-23c1.8-1.8,3.6-3,5.5-4.8   c3.6-3.6,13.9-10.9,18.8-13.3c4.2-2.4,8.5-4.8,13.3-7.3c41.8-18.8,92.1-16.4,130.2,9.7c4.8,3,14.5,9.1,17,13.3   c-7.9,0-12.1,2.4-16.4,6.7c-3.6,3-7.3,9.1-7.3,15.7c0,25.4,24.2,38.2,24.2,67.8c0,13.3-0.6,15.1-4.2,28.5l-6.7,20.6l-9.1,30.9   c-0.6,3-2.4,7.9-3,10.9C321.8,335.5,318.2,321.6,317,319.1z M384.2,299.1c-2.4,5.5-3.6,10.3-6.7,15.7c-7.3,15.1-15.7,26-27.9,38.2   l-12.1,10.3c-4.2,3.6-8.5,6.7-13.3,9.1c1.2-6.1,36.9-108.4,41.8-120.5c7.3-18.8,9.7-29.1,9.7-51.5c0-3.6-0.6-4.8-0.6-7.9l1.8,2.4   c7.9,15.7,13.9,37.5,13.9,55.1C390.9,270.1,390.3,279.2,384.2,299.1z"/></g></svg>